Exact Audio Copy V0.99 prebeta 1 from 25. May 2007

EAC 抓取日志文件从17. 十月 2010, 12:20

温可铮 / 20世纪中华歌坛名人百集珍藏版

使用驱动器  ：BENQ    DVD-ROM 16X   Adapter: 0  ID: 1

读取模式     : 保护
使用精确流   : 是
废除音频缓冲 : 是
使用 C2 指针 : 否

读取偏移校正                   : 738
读取 Lead-In 和 Lead-Out       : 否
用静音填充抓取中丢失偏移的采样 : 是
去除首尾静音块                 : 否
已用接口                       : 已安装外部 ASPI 接口

所用输出格式 : 内部 WAV 函数
样本格式     : 44.100 Hz;16 Bit;立体声


被抓轨 CD 的 TOC

     音轨 |   开始   |   长度   | 起始扇区 | 结尾扇区 
    --------------------------------------------------
       1  |  0:00.00 |  3:08.22 |       0  |   14121  
       2  |  3:08.22 |  4:03.30 |   14122  |   32376  
       3  |  7:11.52 |  5:53.70 |   32377  |   58921  
       4  | 13:05.47 |  3:39.58 |   58922  |   75404  
       5  | 16:45.30 |  3:55.02 |   75405  |   93031  
       6  | 20:40.32 |  4:10.05 |   93032  |  111786  
       7  | 24:50.37 |  3:27.73 |  111787  |  127384  
       8  | 28:18.35 |  5:59.70 |  127385  |  154379  
       9  | 34:18.30 |  1:49.70 |  154380  |  162624  
      10  | 36:08.25 |  3:02.02 |  162625  |  176276  
      11  | 39:10.27 |  2:50.00 |  176277  |  189026  
      12  | 42:00.27 |  2:47.73 |  189027  |  201624  
      13  | 44:48.25 |  2:58.17 |  201625  |  214991  
      14  | 47:46.42 |  3:29.08 |  214992  |  230674  
      15  | 51:15.50 |  3:10.57 |  230675  |  244981  
      16  | 54:26.32 |  2:17.35 |  244982  |  255291  


范围状态及错误

已选择范围

     文件名 E:\文件夹\20世纪中华歌坛名人百集珍藏版-温可铮[lwg188原创]\温可铮 - 20世纪中华歌坛名人百集珍藏版.wav

     峰值电平 100.0 %
     范围质量 100.0 %
     复制 CRC E29795E4
     复制成功

没有错误发生

状态报告结尾
